#!OML:ASF H:\LiuWeirdWalks\Patient Classification 1\Patient 1\Session 1\male.ASF
:FULLY-SPECIFIED
:DEGREES
1161
root 1.47791 17.728 38.9674 182.44 -7.14024 182.326
lowerback 1.80447 1.88715 -3.54924
upperback -0.480409 2.43445 3.11785
thorax -1.7937 1.25338 5.1313
lowerneck -14.7808 0.0561616 8.81524
upperneck 16.3762 -0.244477 -10.4147
head 7.42444 -0.658877 -4.96273
rclavicle -2.47487e-014 -3.33958e-014
rhumerus -36.7246 -18.5826 -70.1437
rradius 25.0335
rwrist -1.76687
rhand -15.2541 -5.14366
rfingers 7.12502
rthumb 10.9197 -34.8397
lclavicle -2.47487e-014 -3.33958e-014
lhumerus -32.2299 3.9019 81.3355
lradius 35.9994
lwrist 17.0033
lhand -18.4143 -0.141031
lfingers 7.12502
lthumb 7.87051 29.6925
rfemur -14.4613 -6.30432 20.8218
rtibia 36.9257
rfoot -18.3018 -19.9343
rtoes -0.935174
lfemur -13.5787 -1.98111 -18.756
ltibia 33.8449
lfoot -17.3624 10.812
ltoes -7.22667
1162
root 1.48033 17.7279 38.9654 182.424 -7.06656 182.354
lowerback 1.7976 2.00845 -3.69922
upperback -0.504283 2.59331 3.18086
thorax -1.84309 1.33634 5.2756
lowerneck -14.8979 -0.154261 8.65213
upperneck 16.5191 -0.514117 -10.351
head 7.4638 -0.796257 -4.94688
rclavicle -4.29375e-014 7.95139e-015
rhumerus -36.8151 -18.7709 -69.8704
rradius 25.233
rwrist -2.00284
rhand -15.3845 -5.18444
rfingers 7.12502
rthumb 10.7939 -34.8871
lclavicle -4.29375e-014 7.95139e-015
lhumerus -32.1382 3.47173 81.5911
lradius 36.0652
lwrist 17.0393
lhand -18.3352 -0.218763
lfingers 7.12502
lthumb 7.94682 29.6119
rfemur -14.4207 -6.18811 20.8653
rtibia 36.8817
rfoot -18.2973 -19.9833
rtoes -0.897856
lfemur -13.5366 -2.01771 -18.7267
ltibia 33.8379
lfoot -17.3824 10.9239
ltoes -7.12458
1163
root 1.48194 17.7278 38.9637 182.411 -6.97108 182.387
lowerback 1.7927 2.05971 -3.75507
upperback -0.521631 2.66026 3.22122
thorax -1.87103 1.3714 5.3466
lowerneck -15.0233 -0.246939 8.55134
upperneck 16.6461 -0.628177 -10.3322
head 7.51598 -0.859629 -4.94147
rclavicle 9.64106e-015 7.95139e-015
rhumerus -36.8003 -18.8205 -69.7411
rradius 25.3868
rwrist -2.26408
rhand -15.5428 -5.10243
rfingers 7.12502
rthumb 10.6412 -34.813
lclavicle 9.64106e-015 7.95139e-015
lhumerus -32.1018 3.21909 81.7297
lradius 36.1344
lwrist 17.0155
lhand -18.2827 -0.244537
lfingers 7.12502
lthumb 7.99745 29.5842
rfemur -14.3937 -6.06242 20.914
rtibia 36.845
rfoot -18.2879 -20.0292
rtoes -0.858968
lfemur -13.4999 -2.03884 -18.6955
ltibia 33.8343
lfoot -17.4003 11.0424
ltoes -7.03169
1164
root 1.48259 17.7279 38.9622 182.408 -6.85155 182.425
lowerback 1.75736 2.0758 -3.7495
upperback -0.541374 2.68205 3.24827
thorax -1.87536 1.38244 5.37171
lowerneck -14.9847 -0.244121 8.57304
upperneck 16.5508 -0.619924 -10.3842
head 7.47848 -0.857546 -4.95798
rclavicle -1.60519e-014 1.31198e-014
rhumerus -36.7441 -18.798 -69.6819
rradius 25.5124
rwrist -2.52192
rhand -15.7277 -4.97583
rfingers 7.12502
rthumb 10.4628 -34.6955
lclavicle -1.60519e-014 1.31198e-014
lhumerus -32.1175 3.05837 81.8093
lradius 36.1898
lwrist 16.9427
lhand -18.2108 -0.26344
lfingers 7.12502
lthumb 8.06688 29.5626
rfemur -14.3874 -5.9298 20.966
rtibia 36.8163
rfoot -18.2723 -20.0679
rtoes -0.816196
lfemur -13.4765 -2.04272 -18.6638
ltibia 33.835
lfoot -17.4115 11.1685
ltoes -6.96365
1165
root 1.48213 17.7282 38.9609 182.419 -6.72662 182.461
lowerback 1.70165 2.07769 -3.70439
upperback -0.577717 2.68624 3.25972
thorax -1.88052 1.38452 5.35916
lowerneck -14.8059 -0.201453 8.65617
upperneck 16.3118 -0.562326 -10.4526
head 7.37428 -0.82501 -4.97798
rclavicle -1.30452e-014 -2.0276e-014
rhumerus -36.7026 -18.7539 -69.6482
rradius 25.6298
rwrist -2.79815
rhand -15.9081 -4.81268
rfingers 7.12502
rthumb 10.2888 -34.541
lclavicle -1.30452e-014 -2.0276e-014
lhumerus -32.1857 2.91564 81.864
lradius 36.2255
lwrist 16.8235
lhand -18.139 -0.271176
lfingers 7.12502
lthumb 8.13621 29.5522
rfemur -14.4016 -5.80559 21.0134
rtibia 36.7956
rfoot -18.2559 -20.0978
rtoes -0.769241
lfemur -13.4713 -2.0387 -18.6384
ltibia 33.8394
lfoot -17.4125 11.2957
ltoes -6.91498
1166
root 1.48145 17.7285 38.9596 182.433 -6.60812 182.49
lowerback 1.64823 2.05404 -3.64226
upperback -0.604305 2.65655 3.26224
thorax -1.87152 1.36884 5.3291
lowerneck -14.5845 -0.106754 8.79716
upperneck 15.969 -0.439649 -10.5514
head 7.23593 -0.757914 -5.00776
rclavicle 3.13086e-015 -3.33958e-014
rhumerus -36.6072 -18.6757 -69.6687
rradius 25.734
rwrist -3.06413
rhand -16.078 -4.65986
rfingers 7.12502
rthumb 10.1249 -34.3963
lclavicle 3.13086e-015 -3.33958e-014
lhumerus -32.2515 2.83581 81.887
lradius 36.237
lwrist 16.689
lhand -18.0708 -0.276575
lfingers 7.12502
lthumb 8.20201 29.5442
rfemur -14.4211 -5.68409 21.0534
rtibia 36.7805
rfoot -18.2398 -20.1344
rtoes -0.722724
lfemur -13.4722 -2.02719 -18.6207
ltibia 33.8447
lfoot -17.4034 11.4117
ltoes -6.89046
1167
root 1.48046 17.7289 38.9587 182.451 -6.49342 182.511
lowerback 1.6054 1.96961 -3.5216
upperback -0.614546 2.54646 3.24324
thorax -1.83826 1.31123 5.24643
lowerneck -14.3558 0.103212 9.03319
upperneck 15.5181 -0.171157 -10.704
head 7.07785 -0.617763 -5.05493
rclavicle -3.20043e-014 -1.43125e-014
rhumerus -36.3979 -18.5033 -69.814
rradius 25.8149
rwrist -3.25017
rhand -16.2012 -4.60175
rfingers 7.12502
rthumb 10.006 -34.3439
lclavicle -3.20043e-014 -1.43125e-014
lhumerus -32.3202 2.90554 81.8155
lradius 36.2289
lwrist 16.5294
lhand -17.9639 -0.318146
lfingers 7.12502
lthumb 8.30518 29.4986
rfemur -14.4491 -5.57421 21.0843
rtibia 36.7697
rfoot -18.218 -20.1667
rtoes -0.684531
lfemur -13.481 -2.00805 -18.6114
ltibia 33.8489
lfoot -17.3822 11.5193
ltoes -6.88299
1168
root 1.48024 17.7293 38.957 182.456 -6.42415 182.522
lowerback 1.57813 1.99351 -3.55475
upperback -0.615447 2.57808 3.26138
thorax -1.83005 1.32722 5.28389
lowerneck -14.2488 0.110385 9.12599
upperneck 15.2319 -0.170171 -10.763
head 6.96667 -0.610211 -5.07931
rclavicle 1.01877e-015 2.3059e-014
rhumerus -36.299 -18.56 -69.758
rradius 25.9696
rwrist -3.462
rhand -16.3217 -4.78937
rfingers 7.12502
rthumb 9.88983 -34.5371
lclavicle 1.01877e-015 2.3059e-014
lhumerus -32.2861 2.69989 81.9568
lradius 36.1559
lwrist 16.3618
lhand -17.842 -0.36137
lfingers 7.12502
lthumb 8.42284 29.4507
rfemur -14.4514 -5.48834 21.1063
rtibia 36.7604
rfoot -18.2083 -20.2177
rtoes -0.641879
lfemur -13.4748 -1.98642 -18.6068
ltibia 33.8491
lfoot -17.364 11.5834
ltoes -6.87468
1169
root 1.48006 17.7296 38.9552 182.454 -6.35928 182.525
lowerback 1.5775 1.95473 -3.53888
upperback -0.587614 2.52628 3.26171
thorax -1.79407 1.29959 5.27784
lowerneck -14.3308 0.196775 9.19143
upperneck 15.1208 -0.0641968 -10.8078
head 6.95692 -0.558538 -5.09327
rclavicle 3.22528e-014 3.89618e-014
rhumerus -36.0628 -18.4926 -69.8536
rradius 26.1129
rwrist -3.67118
rhand -16.4472 -5.08066
rfingers 7.12502
rthumb 9.76872 -34.8341
lclavicle 3.22528e-014 3.89618e-014
lhumerus -32.2399 2.64959 82.0057
lradius 36.0739
lwrist 16.187
lhand -17.7087 -0.416532
lfingers 7.12502
lthumb 8.55142 29.3903
rfemur -14.4443 -5.41729 21.1175
rtibia 36.7512
rfoot -18.1975 -20.2567
rtoes -0.620306
lfemur -13.4582 -1.95565 -18.6091
ltibia 33.8449
lfoot -17.3463 11.6362
ltoes -6.86754
1170
root 1.47972 17.7298 38.9532 182.446 -6.29142 182.526
lowerback 1.59484 1.88063 -3.48759
upperback -0.545598 2.42749 3.25027
thorax -1.74591 1.24742 5.24078
lowerneck -14.5302 0.326164 9.23253
upperneck 15.136 0.0993615 -10.8378
head 7.01497 -0.483385 -5.09846
rclavicle -3.32964e-015 -3.26007e-014
rhumerus -35.7569 -18.3403 -70.042
rradius 26.2664
rwrist -3.85187
rhand -16.5773 -5.54331
rfingers 7.12502
rthumb 9.64321 -35.3026
lclavicle -3.32964e-015 -3.26007e-014
lhumerus -32.196 2.68718 82.0006
lradius 35.9773
lwrist 16.0051
lhand -17.5414 -0.474163
lfingers 7.12502
lthumb 8.71294 29.326
rfemur -14.4278 -5.36183 21.1219
rtibia 36.7401
rfoot -18.1852 -20.273
rtoes -0.616178
lfemur -13.4299 -1.9176 -18.6135
ltibia 33.8355
lfoot -17.3349 11.6837
ltoes -6.84155
1171
root 1.47898 17.7298 38.9509 182.43 -6.22005 182.53
lowerback 1.62372 1.79226 -3.41001
upperback -0.495887 2.30982 3.23173
thorax -1.69291 1.18524 5.18176
lowerneck -14.8134 0.462158 9.23973
upperneck 15.2632 0.273349 -10.8464
head 7.12516 -0.406656 -5.09409
rclavicle -2.95941e-014 -5.28767e-014
rhumerus -35.4246 -18.1359 -70.2831
rradius 26.4227
rwrist -4.07573
rhand -16.7452 -6.01202
rfingers 7.12502
rthumb 9.48124 -35.7787
lclavicle -2.95941e-014 -5.28767e-014
lhumerus -32.1591 2.75329 81.9757
lradius 35.869
lwrist 15.8204
lhand -17.417 -0.484418
lfingers 7.12502
lthumb 8.83296 29.3107
rfemur -14.4002 -5.32333 21.1234
rtibia 36.7269
rfoot -18.1773 -20.2595
rtoes -0.625178
lfemur -13.3889 -1.87198 -18.6147
ltibia 33.8231
lfoot -17.3345 11.7286
ltoes -6.81057
